<svg width="20" version="1.1" id="Layer_1" xmlns="http://www.w3.org/2000/svg" xmlns:xlink="http://www.w3.org/1999/xlink" x="0px" y="0px"
	 viewBox="0 0 595.3 595.3" style="enable-background:new 0 0 595.3 595.3;" xml:space="preserve">
<g>
	<path d="M297.7,24.5c150.9,0,273.1,122.3,273,273.3c-0.1,150.9-122.4,273.1-273.3,272.9C146.5,570.6,24.5,448.3,24.6,297.3
		C24.7,146.6,146.9,24.5,297.7,24.5z M536.5,297.7c-0.2-131.9-107-238.9-238.9-239C166.1,58.6,59,165.8,58.8,297.4
		c-0.2,131.6,106.9,239,238.7,239.1C429.1,536.6,536.2,429.9,536.5,297.7z"/>
	<path d="M280.6,443.4c0-2.6-0.2-5.2,0.1-7.7c0.3-2.7-0.8-3.8-3.3-4.4c-8.6-2.1-16.5-5.9-23.7-11.1c-14.6-10.4-24.9-24-29.5-41.4
		c-1.8-6.8-2.7-13.9-3.1-21c-0.5-9.6,7.2-17.4,16.5-17.5c9.6-0.1,17.2,7.3,17.5,17c0.6,18,9,31.1,25.2,38.9
		c21.4,10.3,48.5-1,57.1-23.2c8.4-21.7-2.1-45.6-22.2-54.5c-5.8-2.6-12-3.8-18.4-3.8c-15.5-0.2-29.7-4.7-42.5-13.5
		c-15.7-10.9-26.2-25.6-31-44.1c-8-30.9,3.9-63.4,30.4-82.1c7.2-5.1,15.1-9,23.7-11c2.3-0.5,3.3-1.5,3.2-4.2
		c-0.3-5.2-0.1-10.5-0.1-15.7c0.1-9.6,7.6-17.1,17-17.1c9.4,0,17,7.6,17.1,17.2c0.1,5.6,0.1,11.2,0,16.8c0,1.5,0.4,2.2,1.9,2.6
		c15.6,4.1,28.8,12.3,39.3,24.6c9.7,11.3,15.7,24.4,17.6,39.2c0.7,5.4,1.6,10.7-0.1,16.1c-2.1,6.6-8.9,11.5-16,11.6
		c-7.2,0-14.1-4.8-16.1-11.3c-0.6-1.9-0.9-4-1.1-6c-1-19.1-10.2-32.5-27.9-39.7c-20.7-8.4-46.2,3.2-54.3,24
		c-8.5,21.8,1.8,45.7,22.1,54.8c5.8,2.6,11.8,3.8,18.1,3.8c14.5,0.1,27.9,3.9,40.1,11.7c17.8,11.4,29.4,27.5,34.2,48.2
		c8.1,34.7-9.5,70.2-40.7,85.6c-4.8,2.4-10,4-15.1,5.7c-1.5,0.5-1.9,1.2-1.9,2.6c0,5.8,0.1,11.6,0,17.3c-0.2,8-6.2,14.9-14.2,16.4
		c-7.3,1.4-15.5-3-18.5-10.1c-0.8-2-1.2-4.3-1.4-6.4C280.4,448.9,280.6,446.1,280.6,443.4C280.6,443.4,280.6,443.4,280.6,443.4z"/>
</g>
</svg>