<svg width="16" height="16" viewBox="0 0 16 16" fill="none" xmlns="http://www.w3.org/2000/svg">
                                                    <path d="M9.5 2.5L2.92819 9.07181C2.71566 9.28434 2.60939 9.39061 2.53953 9.52115C2.46966 9.6517 2.44019 9.79907 2.38124 10.0938L1.64709 13.7646C1.58057 14.0972 1.5473 14.2635 1.64191 14.3581C1.73652 14.4527 1.90283 14.4194 2.23544 14.3529L5.90621 13.6188C6.20093 13.5598 6.3483 13.5303 6.47885 13.4605C6.60939 13.3906 6.71566 13.2843 6.92819 13.0718L13.5 6.5L9.5 2.5Z" fill="#7E869E" fill-opacity="0.25"/>
                                                    <path d="M2.95396 14.38L2.95397 14.38L2.9801 14.3734L2.98012 14.3734L5.60809 13.7164C5.62428 13.7124 5.64043 13.7084 5.65654 13.7044C5.87531 13.65 6.08562 13.5978 6.27707 13.4894C6.46852 13.381 6.62153 13.2275 6.7807 13.0679C6.79242 13.0561 6.80418 13.0444 6.81598 13.0325L14.0101 5.83848L14.0101 5.83847L14.0369 5.81165C14.3472 5.50137 14.6215 5.22715 14.8128 4.97638C15.0202 4.70457 15.1858 4.39104 15.1858 4C15.1858 3.60896 15.0202 3.29543 14.8128 3.02361C14.6215 2.77285 14.3472 2.49863 14.0369 2.18835L14.01 2.16152L13.8385 1.98995L13.8117 1.96314C13.5014 1.6528 13.2272 1.37853 12.9764 1.1872C12.7046 0.979813 12.391 0.814214 12 0.814214C11.609 0.814214 11.2954 0.979813 11.0236 1.1872C10.7729 1.37853 10.4986 1.65278 10.1884 1.96311L10.1615 1.98995L2.96745 9.18402C2.95565 9.19582 2.94386 9.20758 2.93211 9.21929C2.77249 9.37847 2.61904 9.53148 2.51064 9.72293C2.40225 9.91438 2.34999 10.1247 2.29562 10.3435C2.29162 10.3596 2.28761 10.3757 2.28356 10.3919L1.62003 13.046C1.61762 13.0557 1.61518 13.0654 1.61272 13.0752C1.57411 13.2293 1.53044 13.4035 1.51593 13.5518C1.49978 13.7169 1.50127 14.0162 1.74255 14.2574C1.98383 14.4987 2.28307 14.5002 2.44819 14.4841C2.59646 14.4696 2.77072 14.4259 2.92479 14.3873C2.9346 14.3848 2.94433 14.3824 2.95396 14.38Z" stroke="#33363F" stroke-width="1.2"/>
                                                    <path d="M9.5 2.5L13.5 6.5" stroke="#33363F" stroke-width="1.2"/>
                                                </svg>