<svg width="18" height="18" viewBox="0 0 18 18" fill="none" xmlns="http://www.w3.org/2000/svg">
<path d="M0 8C0 4.22876 0 2.34315 1.17157 1.17157C2.34315 0 4.22876 0 8 0H10C13.7712 0 15.6569 0 16.8284 1.17157C18 2.34315 18 4.22876 18 8V10C18 13.7712 18 15.6569 16.8284 16.8284C15.6569 18 13.7712 18 10 18H8C4.22876 18 2.34315 18 1.17157 16.8284C0 15.6569 0 13.7712 0 10V8Z" fill="#7E869E" fill-opacity="0.25"/>
<circle cx="9" cy="7" r="4" fill="#222222"/>
<path fill-rule="evenodd" clip-rule="evenodd" d="M15.9463 17.2532C15.9616 17.3587 15.9048 17.4613 15.8063 17.5021C14.6048 18 12.8353 18 9.99998 18H7.99998C5.16476 18 3.3953 18 2.19377 17.5022C2.0953 17.4614 2.03846 17.3587 2.05373 17.2532C2.48265 14.2919 5.42909 12 9.00004 12C12.571 12 15.5174 14.2919 15.9463 17.2532Z" fill="#222222"/>
</svg>